<svg  viewBox="0 -2 16 16" fill="none" xmlns="http://www.w3.org/2000/svg">
<path d="M0 11V9.33494C0 8.92163 0.108597 8.5467 0.325792 8.21014C0.542987 7.87359 0.844646 7.62265 1.23077 7.45733C2.11161 7.07944 2.90498 6.80784 3.61086 6.64251C4.31674 6.47719 5.04374 6.39453 5.79186 6.39453C6.53997 6.39453 7.26395 6.47719 7.9638 6.64251C8.66365 6.80784 9.454 7.07944 10.3348 7.45733C10.721 7.62265 11.0256 7.87359 11.2489 8.21014C11.4721 8.5467 11.5837 8.92163 11.5837 9.33494V11H0ZM12.6697 11V9.33494C12.6697 8.59098 12.4766 7.97987 12.0905 7.50161C11.7044 7.02335 11.1976 6.63661 10.5701 6.34139C11.4027 6.43586 12.187 6.57461 12.9231 6.75765C13.6591 6.94069 14.2564 7.1503 14.7149 7.38647C15.1131 7.61084 15.4268 7.88835 15.6561 8.219C15.8854 8.54965 16 8.92163 16 9.33494V11H12.6697ZM5.79186 5.31401C4.99548 5.31401 4.34389 5.06602 3.8371 4.57005C3.33032 4.07407 3.07692 3.43639 3.07692 2.65701C3.07692 1.87762 3.33032 1.23994 3.8371 0.743962C4.34389 0.247987 4.99548 0 5.79186 0C6.58824 0 7.23982 0.247987 7.74661 0.743962C8.25339 1.23994 8.50679 1.87762 8.50679 2.65701C8.50679 3.43639 8.25339 4.07407 7.74661 4.57005C7.23982 5.06602 6.58824 5.31401 5.79186 5.31401ZM9.59276 5.31401C9.46003 5.31401 9.31222 5.30515 9.14932 5.28744C8.98643 5.26973 8.83861 5.23725 8.70588 5.19002C8.99548 4.89479 9.21569 4.53167 9.36652 4.10064C9.51735 3.66962 9.59276 3.18841 9.59276 2.65701C9.59276 2.1256 9.51735 1.6562 9.36652 1.24879C9.21569 0.841385 8.99548 0.466452 8.70588 0.123994C8.83861 0.088567 8.98643 0.0590447 9.14932 0.0354269C9.31222 0.011809 9.46003 0 9.59276 0C10.3891 0 11.0407 0.247987 11.5475 0.743962C12.0543 1.23994 12.3077 1.87762 12.3077 2.65701C12.3077 3.43639 12.0543 4.07407 11.5475 4.57005C11.0407 5.06602 10.3891 5.31401 9.59276 5.31401Z" fill="currentColor"/>
</svg>
