<svg  viewBox="-0.1 -2 18 18" fill="none" xmlns="http://www.w3.org/2000/svg">
<path d="M12.2889 16L8.71111 12.4222L9.66667 11.4667L12.2889 14.0889L17.7111 8.66667L18.6667 9.62222L12.2889 16ZM1.33333 13.9556C0.977778 13.9556 0.666667 13.8222 0.4 13.5556C0.133333 13.2889 0 12.9778 0 12.6222V1.33333C0 0.977778 0.133333 0.666667 0.4 0.4C0.666667 0.133333 0.977778 0 1.33333 0H16.3778C16.7333 0 17.0444 0.133333 17.3111 0.4C17.5778 0.666667 17.7111 0.977778 17.7111 1.33333V6.75556L12.2444 12.2222L9.66667 9.64444L6.84444 12.4667L8.35555 13.9556H1.33333ZM8.84444 7.4L16.3778 2.57778L16.2667 1.33333L8.84444 6.06667L1.42222 1.33333L1.33333 2.57778L8.84444 7.4Z" fill="currentColor"/>
</svg>
