<svg  viewBox="0 0 18 18" fill="none" xmlns="http://www.w3.org/2000/svg">
<path d="M14 0.5H4C2.067 0.5 0.5 2.067 0.5 4V14C0.5 15.933 2.067 17.5 4 17.5H14C15.933 17.5 17.5 15.933 17.5 14V4C17.5 2.067 15.933 0.5 14 0.5Z" fill="#006FCF" stroke="#006FCF"/>
<path fill-rule="evenodd" clip-rule="evenodd" d="M15.7975 5.27612C16.0865 4.96461 16.0634 4.48222 15.7459 4.19867C15.4285 3.91513 14.9369 3.9378 14.648 4.24931L7.33985 12.1285L3.33063 8.1385C3.02924 7.8386 2.53715 7.8352 2.23151 8.131C1.92587 8.4267 1.92241 8.9096 2.2238 9.2096L6.80901 13.7728C6.95885 13.9219 7.16458 14.004 7.37795 13.9998C7.59131 13.9957 7.79354 13.9056 7.93719 13.7507L15.7975 5.27612Z" fill="white"/>
</svg>
