<svg  viewBox="-1 0 14 14" fill="currentColor" xmlns="http://www.w3.org/2000/svg">
<path d="M3.15 11.9C2.87 11.9 2.625 11.795 2.415 11.585C2.205 11.375 2.1 11.13 2.1 10.85V1.05C2.1 0.77 2.205 0.525 2.415 0.315C2.625 0.105 2.87 0 3.15 0H10.85C11.13 0 11.375 0.105 11.585 0.315C11.795 0.525 11.9 0.77 11.9 1.05V10.85C11.9 11.13 11.795 11.375 11.585 11.585C11.375 11.795 11.13 11.9 10.85 11.9H3.15ZM1.05 14C0.77 14 0.525 13.895 0.315 13.685C0.105 13.475 0 13.23 0 12.95V2.3975H1.05V12.95H9.345V14H1.05Z"/>
</svg>
