<svg  viewBox="15 15 70 70" fill="none" xmlns="http://www.w3.org/2000/svg">
<path d="M50 31.25C53.4518 31.25 56.25 28.4518 56.25 25C56.25 21.5482 53.4518 18.75 50 18.75C46.5482 18.75 43.75 21.5482 43.75 25C43.75 28.4518 46.5482 31.25 50 31.25Z" fill="currentColor"/>
<path d="M50 56.25C53.4518 56.25 56.25 53.4518 56.25 50C56.25 46.5482 53.4518 43.75 50 43.75C46.5482 43.75 43.75 46.5482 43.75 50C43.75 53.4518 46.5482 56.25 50 56.25Z" fill="currentColor"/>
<path d="M50 81.25C53.4518 81.25 56.25 78.4518 56.25 75C56.25 71.5482 53.4518 68.75 50 68.75C46.5482 68.75 43.75 71.5482 43.75 75C43.75 78.4518 46.5482 81.25 50 81.25Z" fill="currentColor"/>
</svg>
