<svg  viewBox="0 -3.5 8 8" fill="none" xmlns="http://www.w3.org/2000/svg">
<path d="M0.6 1.2C0.433333 1.2 0.291667 1.14167 0.175 1.025C0.0583333 0.908333 0 0.766667 0 0.6C0 0.433333 0.0583333 0.291666 0.175 0.175C0.291667 0.058333 0.433333 0 0.6 0C0.766667 0 0.908333 0.058333 1.025 0.175C1.14167 0.291666 1.2 0.433333 1.2 0.6C1.2 0.766667 1.14167 0.908333 1.025 1.025C0.908333 1.14167 0.766667 1.2 0.6 1.2ZM4 1.2C3.83333 1.2 3.69167 1.14167 3.575 1.025C3.45833 0.908333 3.4 0.766667 3.4 0.6C3.4 0.433333 3.45833 0.291666 3.575 0.175C3.69167 0.058333 3.83333 0 4 0C4.16667 0 4.30833 0.058333 4.425 0.175C4.54167 0.291666 4.6 0.433333 4.6 0.6C4.6 0.766667 4.54167 0.908333 4.425 1.025C4.30833 1.14167 4.16667 1.2 4 1.2ZM7.4 1.2C7.23333 1.2 7.09167 1.14167 6.975 1.025C6.85833 0.908333 6.8 0.766667 6.8 0.6C6.8 0.433333 6.85833 0.291666 6.975 0.175C7.09167 0.058333 7.23333 0 7.4 0C7.56667 0 7.70833 0.058333 7.825 0.175C7.94167 0.291666 8 0.433333 8 0.6C8 0.766667 7.94167 0.908333 7.825 1.025C7.70833 1.14167 7.56667 1.2 7.4 1.2Z" fill="currentColor"/>
</svg>
