<svg  viewBox="-0.8 0 16 16" fill="currentColor" xmlns="http://www.w3.org/2000/svg">
<path d="M9.54 13.2C8.99333 13.2 8.53333 13.0133 8.16 12.64C7.78667 12.2667 7.6 11.8067 7.6 11.26C7.6 10.7133 7.78667 10.2533 8.16 9.88C8.53333 9.50667 8.99333 9.32 9.54 9.32C10.0867 9.32 10.5467 9.50667 10.92 9.88C11.2933 10.2533 11.48 10.7133 11.48 11.26C11.48 11.8067 11.2933 12.2667 10.92 12.64C10.5467 13.0133 10.0867 13.2 9.54 13.2ZM1.2 16C0.88 16 0.6 15.88 0.36 15.64C0.12 15.4 0 15.12 0 14.8V2.4C0 2.08 0.12 1.8 0.36 1.56C0.6 1.32 0.88 1.2 1.2 1.2H2.5V0H3.8V1.2H10.6V0H11.9V1.2H13.2C13.52 1.2 13.8 1.32 14.04 1.56C14.28 1.8 14.4 2.08 14.4 2.4V14.8C14.4 15.12 14.28 15.4 14.04 15.64C13.8 15.88 13.52 16 13.2 16H1.2ZM1.2 14.8H13.2V6.2H1.2V14.8Z" />
</svg>
