<svg viewBox="0 0 24 20" fill="currentColor" xmlns="http://www.w3.org/2000/svg">
<path d="M0 19.8802H24L12 0.680176L0 19.8802ZM2.3 18.6802L12 2.80325L21.7 18.6802H2.3ZM11.18 16.594C11.18 16.1709 11.5269 15.8279 11.95 15.8279C12.3731 15.8279 12.72 16.1709 12.72 16.594C12.72 17.0172 12.3731 17.3602 11.95 17.3602C11.5269 17.3602 11.18 17.0172 11.18 16.594ZM11.3179 6.30838C11.3241 5.92565 11.6361 5.61864 12.0189 5.61864C12.4061 5.61864 12.72 5.93252 12.72 6.31971V14.0764C12.72 14.4982 12.378 14.8402 11.9562 14.8402C11.5296 14.8402 11.1857 14.4906 11.1925 14.0641L11.3179 6.30838Z" />
</svg>
