<svg  viewBox="0 0 14 14" fill="currentColor" xmlns="http://www.w3.org/2000/svg">
<path opacity="0.5" d="M1.16667 14C0.855556 14 0.583333 13.8833 0.35 13.65C0.116667 13.4167 0 13.1444 0 12.8333V1.16667C0 0.855556 0.116667 0.583333 0.35 0.35C0.583333 0.116667 0.855556 0 1.16667 0H6.59167V1.16667H1.16667V12.8333H12.8333V7.40833H14V12.8333C14 13.1444 13.8833 13.4167 13.65 13.65C13.4167 13.8833 13.1444 14 12.8333 14H1.16667ZM5.09444 9.74167L4.27778 8.90556L12.0167 1.16667H7.75833V0H14V6.24167H12.8333V2.00278L5.09444 9.74167Z" fill="currentColor"/>
</svg>
