<svg  viewBox="0 0 16 16" fill="none" xmlns="http://www.w3.org/2000/svg">
<path d="M15 9C14.7333 9 14.5 8.9 14.3 8.7C14.1 8.5 14 8.26667 14 8C14 7.73333 14.1 7.5 14.3 7.3C14.5 7.1 14.7333 7 15 7C15.2667 7 15.5 7.1 15.7 7.3C15.9 7.5 16 7.73333 16 8C16 8.26667 15.9 8.5 15.7 8.7C15.5 8.9 15.2667 9 15 9ZM1 9C0.733333 9 0.5 8.9 0.3 8.7C0.1 8.5 0 8.26667 0 8C0 7.73333 0.1 7.5 0.3 7.3C0.5 7.1 0.733333 7 1 7C1.26667 7 1.5 7.1 1.7 7.3C1.9 7.5 2 7.73333 2 8C2 8.26667 1.9 8.5 1.7 8.7C1.5 8.9 1.26667 9 1 9ZM8 16C7.73333 16 7.5 15.9 7.3 15.7C7.1 15.5 7 15.2667 7 15C7 14.7333 7.1 14.5 7.3 14.3C7.5 14.1 7.73333 14 8 14C8.26667 14 8.5 14.1 8.7 14.3C8.9 14.5 9 14.7333 9 15C9 15.2667 8.9 15.5 8.7 15.7C8.5 15.9 8.26667 16 8 16ZM10.94 5.9L10.08 5.04L13.52 1.6L14.38 2.46L10.94 5.9ZM5.06 5.9L1.62 2.46L2.48 1.6L5.92 5.04L5.06 5.9ZM13.52 14.36L10.08 10.92L10.94 10.06L14.38 13.5L13.52 14.36ZM2.46 14.38L1.6 13.52L5.06 10.06L5.92 10.92L2.46 14.38ZM8 2C7.73333 2 7.5 1.9 7.3 1.7C7.1 1.5 7 1.26667 7 1C7 0.733333 7.1 0.5 7.3 0.3C7.5 0.1 7.73333 0 8 0C8.26667 0 8.5 0.1 8.7 0.3C8.9 0.5 9 0.733333 9 1C9 1.26667 8.9 1.5 8.7 1.7C8.5 1.9 8.26667 2 8 2Z" fill="currentColor"/>
</svg>
