<svg  viewBox="-0.5 0.5 17 17" fill="none" xmlns="http://www.w3.org/2000/svg">
<path d="M7.99999 17.2729C5.77777 17.2729 3.88888 16.4775 2.33333 14.8867C0.777773 13.2959 -3.65567e-06 11.3641 -2.86096e-06 9.09154C-2.06625e-06 6.81893 0.777776 4.88722 2.33333 3.29639C3.88889 1.70557 5.77778 0.910158 8 0.910159C8.11852 0.910159 8.24444 0.913947 8.37778 0.921522C8.51111 0.929098 8.68148 0.940461 8.88889 0.955611C8.35556 1.44043 7.94074 2.03889 7.64444 2.75097C7.34815 3.46305 7.2 4.21301 7.2 5.00085C7.2 6.36441 7.66666 7.52344 8.6 8.47794C9.53333 9.43243 10.6667 9.90968 12 9.90968C12.7704 9.90968 13.5037 9.76954 14.2 9.48925C14.8963 9.20896 15.4815 8.81883 15.9556 8.31886C15.9704 8.50067 15.9815 8.64839 15.9889 8.76202C15.9963 8.87565 16 8.98549 16 9.09155C16 11.3642 15.2222 13.2959 13.6667 14.8867C12.1111 16.4775 10.2222 17.2729 7.99999 17.2729Z" fill="currentColor"/>
</svg>
