<svg viewBox="0 0 20 20" fill="currentColor" xmlns="http://www.w3.org/2000/svg">
<path d="M10.1434 8.71126C8.84699 8.71126 7.78627 8.32479 6.96127 7.55184C6.13627 6.77889 5.72377 5.78511 5.72377 4.57047C5.72377 3.35584 6.13627 2.36205 6.96127 1.58911C7.78627 0.816161 8.84699 0.429688 10.1434 0.429688C11.4398 0.429688 12.5006 0.816161 13.3256 1.58911C14.1506 2.36205 14.5631 3.35584 14.5631 4.57047C14.5631 5.78511 14.1506 6.77889 13.3256 7.55184C12.5006 8.32479 11.4398 8.71126 10.1434 8.71126ZM0.714844 17.5725V14.9777C0.714844 14.2783 0.901451 13.6802 1.27467 13.1833C1.64788 12.6864 2.12913 12.3091 2.71842 12.0515C4.03449 11.4994 5.29654 11.0853 6.50458 10.8093C7.71261 10.5332 8.92556 10.3952 10.1434 10.3952C11.3613 10.3952 12.5693 10.5378 13.7675 10.8231C14.9657 11.1083 16.2229 11.5178 17.539 12.0515C18.1479 12.3091 18.639 12.6864 19.0122 13.1833C19.3854 13.6802 19.572 14.2783 19.572 14.9777V17.5725H0.714844Z" fill="currentColor"/>
</svg>
