<svg  viewBox="0 0 16 16" fill="none" xmlns="http://www.w3.org/2000/svg">
<path d="M1.33333 12.0559H14.6667L12.2 9.25586L13.1556 8.3003L16 11.5447V15.9447C16 16.3003 15.8667 16.6114 15.6 16.8781C15.3333 17.1447 15.0222 17.2781 14.6667 17.2781H1.33333C0.977778 17.2781 0.666667 17.1447 0.4 16.8781C0.133333 16.6114 0 16.3003 0 15.9447V11.5447L3 8.23363L3.95556 9.18919L1.33333 12.0559ZM13.7778 5.78919L9.06667 10.5003C8.81481 10.7522 8.5037 10.8855 8.13333 10.9003C7.76296 10.9151 7.43704 10.7818 7.15556 10.5003L3.62222 6.96697C3.34074 6.68548 3.21481 6.37067 3.24444 6.02252C3.27407 5.67437 3.42222 5.36697 3.68889 5.1003L8.4 0.389189C8.65185 0.137337 8.96296 0.00770771 9.33333 0.0003003C9.7037 -0.00710711 10.0222 0.122523 10.2889 0.389189L13.8222 3.92252C14.0741 4.17437 14.2037 4.47437 14.2111 4.82252C14.2185 5.17067 14.0741 5.49289 13.7778 5.78919ZM12.6889 4.78919L9.35556 1.45586L4.73333 6.07808L8.06667 9.41141L12.6889 4.78919Z" fill="currentColor"/>
</svg>
