<svg  viewBox="-0.5 -6.5 15 15" fill="none" xmlns="http://www.w3.org/2000/svg">
<path d="M1.05125 2.1C0.759236 2.1 0.511024 1.99792 0.306614 1.79375C0.102205 1.58958 0 1.34167 0 1.05C0 0.758333 0.102205 0.510416 0.306614 0.30625C0.511024 0.102083 0.759236 0 1.05125 0C1.34326 0 1.59148 0.102083 1.79589 0.30625C2.00029 0.510416 2.1025 0.758333 2.1025 1.05C2.1025 1.34167 2.00029 1.58958 1.79589 1.79375C1.59148 1.99792 1.34326 2.1 1.05125 2.1ZM7.00833 2.1C6.71632 2.1 6.46811 1.99792 6.2637 1.79375C6.05929 1.58958 5.95708 1.34167 5.95708 1.05C5.95708 0.758333 6.05929 0.510416 6.2637 0.30625C6.46811 0.102083 6.71632 0 7.00833 0C7.30035 0 7.54856 0.102083 7.75297 0.30625C7.95738 0.510416 8.05958 0.758333 8.05958 1.05C8.05958 1.34167 7.95738 1.58958 7.75297 1.79375C7.54856 1.99792 7.30035 2.1 7.00833 2.1ZM12.9654 2.1C12.6734 2.1 12.4252 1.99792 12.2208 1.79375C12.0164 1.58958 11.9142 1.34167 11.9142 1.05C11.9142 0.758333 12.0164 0.510416 12.2208 0.30625C12.4252 0.102083 12.6734 0 12.9654 0C13.2574 0 13.5056 0.102083 13.71 0.30625C13.9145 0.510416 14.0167 0.758333 14.0167 1.05C14.0167 1.34167 13.9145 1.58958 13.71 1.79375C13.5056 1.99792 13.2574 2.1 12.9654 2.1Z" fill="currentColor"/>
</svg>
