<svg viewBox="0 -1.5 16 16" fill="none" xmlns="http://www.w3.org/2000/svg">
<path d="M6.8 12.8C6.8 11.8533 6.62333 10.9633 6.27 10.13C5.91667 9.29667 5.43333 8.56667 4.82 7.94C4.20667 7.31333 3.48667 6.82 2.66 6.46C1.83333 6.1 0.946667 5.92 0 5.92V1.2C0 0.893333 0.12 0.616667 0.36 0.37C0.6 0.123333 0.88 0 1.2 0H14.8C15.1067 0 15.3833 0.123333 15.63 0.37C15.8767 0.616667 16 0.893333 16 1.2V11.6C16 11.9067 15.8767 12.1833 15.63 12.43C15.3833 12.6767 15.1067 12.8 14.8 12.8H6.8ZM4.4 12.8C4.4 11.56 3.97333 10.5033 3.12 9.63C2.26667 8.75667 1.22667 8.32 0 8.32V7.12C0.786667 7.12 1.52 7.27 2.2 7.57C2.88 7.87 3.47 8.27667 3.97 8.79C4.47 9.30333 4.86667 9.90333 5.16 10.59C5.45333 11.2767 5.6 12.0133 5.6 12.8H4.4ZM2 12.8C2 12.2267 1.80667 11.7367 1.42 11.33C1.03333 10.9233 0.56 10.72 0 10.72V9.52C0.893333 9.52 1.65 9.84 2.27 10.48C2.89 11.12 3.2 11.8933 3.2 12.8H2Z" fill="currentColor"/>
</svg>
