<svg  viewBox="-2.7 0 14 14" fill="currentColor" xmlns="http://www.w3.org/2000/svg">
<path d="M1.70625 14C1.23958 14 0.838542 13.8286 0.503125 13.4859C0.167708 13.1432 0 12.7385 0 12.2719C0 11.7906 0.167708 11.3823 0.503125 11.0469C0.838542 10.7115 1.24688 10.5437 1.72813 10.5437C2.19479 10.5437 2.59948 10.7151 2.94219 11.0578C3.2849 11.4005 3.45625 11.8052 3.45625 12.2719C3.45625 12.7531 3.2849 13.1615 2.94219 13.4969C2.59948 13.8323 2.1875 14 1.70625 14ZM1.70625 8.72813C1.23958 8.72813 0.838542 8.56771 0.503125 8.24687C0.167708 7.92604 0 7.51042 0 7C0 6.51875 0.167708 6.11042 0.503125 5.775C0.838542 5.43958 1.24688 5.27187 1.72813 5.27187C2.19479 5.27187 2.59948 5.43958 2.94219 5.775C3.2849 6.11042 3.45625 6.51875 3.45625 7C3.45625 7.51042 3.2849 7.92604 2.94219 8.24687C2.59948 8.56771 2.1875 8.72813 1.70625 8.72813ZM1.70625 3.45625C1.23958 3.45625 0.838542 3.2849 0.503125 2.94219C0.167708 2.59948 0 2.19479 0 1.72812C0 1.24687 0.167708 0.838542 0.503125 0.503125C0.838542 0.167708 1.24688 0 1.72813 0C2.19479 0 2.59948 0.171354 2.94219 0.514063C3.2849 0.856771 3.45625 1.26146 3.45625 1.72812C3.45625 2.20937 3.2849 2.61771 2.94219 2.95312C2.59948 3.28854 2.1875 3.45625 1.70625 3.45625ZM6.97813 3.45625C6.51146 3.45625 6.11042 3.2849 5.775 2.94219C5.43958 2.59948 5.27187 2.19479 5.27187 1.72812C5.27187 1.24687 5.43958 0.838542 5.775 0.503125C6.11042 0.167708 6.51875 0 7 0C7.46667 0 7.87136 0.171354 8.21406 0.514063C8.55677 0.856771 8.72813 1.26146 8.72813 1.72812C8.72813 2.20937 8.55677 2.61771 8.21406 2.95312C7.87136 3.28854 7.45938 3.45625 6.97813 3.45625ZM6.97813 8.72813C6.51146 8.72813 6.11042 8.56771 5.775 8.24687C5.43958 7.92604 5.27187 7.51042 5.27187 7C5.27187 6.51875 5.43958 6.11042 5.775 5.775C6.11042 5.43958 6.51875 5.27187 7 5.27187C7.46667 5.27187 7.87136 5.43958 8.21406 5.775C8.55677 6.11042 8.72813 6.51875 8.72813 7C8.72813 7.51042 8.55677 7.92604 8.21406 8.24687C7.87136 8.56771 7.45938 8.72813 6.97813 8.72813ZM6.97813 14C6.51146 14 6.11042 13.8286 5.775 13.4859C5.43958 13.1432 5.27187 12.7385 5.27187 12.2719C5.27187 11.7906 5.43958 11.3823 5.775 11.0469C6.11042 10.7115 6.51875 10.5437 7 10.5437C7.46667 10.5437 7.87136 10.7151 8.21406 11.0578C8.55677 11.4005 8.72813 11.8052 8.72813 12.2719C8.72813 12.7531 8.55677 13.1615 8.21406 13.4969C7.87136 13.8323 7.45938 14 6.97813 14Z" />
</svg>
