<svg  viewBox="0 1 16 16" fill="none" xmlns="http://www.w3.org/2000/svg">
<path d="M8 12.8104C6.99394 12.8104 6.13636 12.4478 5.42727 11.7226C4.71818 10.9974 4.36363 10.1204 4.36363 9.09154C4.36363 8.06267 4.71818 7.18565 5.42727 6.46048C6.13636 5.73532 6.99394 5.37273 8 5.37273C9.00606 5.37273 9.86364 5.73532 10.5727 6.46048C11.2818 7.18565 11.6364 8.06267 11.6364 9.09154C11.6364 10.1204 11.2818 10.9974 10.5727 11.7226C9.86363 12.4478 9.00606 12.8104 8 12.8104ZM0.545452 9.64936C0.387876 9.64936 0.257573 9.59668 0.154542 9.49131C0.0515122 9.38595 -2.91731e-06 9.25269 -2.86096e-06 9.09154C-2.80461e-06 8.93039 0.0515124 8.79713 0.154543 8.69177C0.257573 8.5864 0.387876 8.53372 0.545452 8.53372L2.36363 8.53372C2.52121 8.53372 2.65151 8.5864 2.75454 8.69177C2.85757 8.79714 2.90909 8.93039 2.90909 9.09154C2.90909 9.25269 2.85757 9.38595 2.75454 9.49131C2.65151 9.59668 2.52121 9.64936 2.36363 9.64936L0.545452 9.64936ZM13.6364 9.64937C13.4788 9.64937 13.3485 9.59668 13.2455 9.49132C13.1424 9.38595 13.0909 9.25269 13.0909 9.09154C13.0909 8.9304 13.1424 8.79714 13.2455 8.69177C13.3485 8.58641 13.4788 8.53372 13.6364 8.53372L15.4545 8.53372C15.6121 8.53372 15.7424 8.58641 15.8455 8.69177C15.9485 8.79714 16 8.9304 16 9.09155C16 9.25269 15.9485 9.38595 15.8455 9.49132C15.7424 9.59668 15.6121 9.64937 15.4545 9.64937L13.6364 9.64937ZM8 3.88521C7.84242 3.88521 7.71212 3.83252 7.60909 3.72716C7.50606 3.62179 7.45454 3.48853 7.45454 3.32739L7.45455 1.46798C7.45455 1.30683 7.50606 1.17357 7.60909 1.06821C7.71212 0.962842 7.84242 0.910159 8 0.910159C8.15758 0.910159 8.28788 0.962842 8.39091 1.06821C8.49394 1.17357 8.54545 1.30683 8.54545 1.46798L8.54545 3.32739C8.54545 3.48853 8.49394 3.62179 8.39091 3.72716C8.28788 3.83252 8.15757 3.88521 8 3.88521ZM7.99999 17.2729C7.84242 17.2729 7.71212 17.2202 7.60909 17.1149C7.50605 17.0095 7.45454 16.8763 7.45454 16.7151L7.45454 14.8557C7.45454 14.6946 7.50606 14.5613 7.60909 14.4559C7.71212 14.3506 7.84242 14.2979 8 14.2979C8.15757 14.2979 8.28787 14.3506 8.3909 14.4559C8.49394 14.5613 8.54545 14.6946 8.54545 14.8557L8.54545 16.7151C8.54545 16.8763 8.49393 17.0095 8.3909 17.1149C8.28787 17.2202 8.15757 17.2729 7.99999 17.2729ZM3.63636 5.40992L2.6 4.36865C2.49091 4.25709 2.43939 4.12383 2.44545 3.96888C2.45151 3.81393 2.50303 3.68067 2.6 3.56911C2.70909 3.45754 2.83939 3.40176 2.99091 3.40176C3.14242 3.40176 3.27273 3.45754 3.38182 3.56911L4.4 4.62897C4.49697 4.74053 4.54545 4.87069 4.54545 5.01944C4.54545 5.1682 4.49697 5.29216 4.4 5.39133C4.30303 5.50289 4.17879 5.55867 4.02727 5.55867C3.87576 5.55867 3.74545 5.50909 3.63636 5.40992ZM12.6182 14.614L11.6 13.5541C11.503 13.4426 11.4545 13.3093 11.4545 13.1543C11.4545 12.9994 11.5091 12.8723 11.6182 12.7732C11.7151 12.6616 11.8364 12.6058 11.9818 12.6058C12.1273 12.6058 12.2545 12.6616 12.3636 12.7732L13.4 13.8144C13.5091 13.926 13.5606 14.0593 13.5545 14.2142C13.5485 14.3692 13.497 14.5024 13.4 14.614C13.2909 14.7255 13.1606 14.7813 13.0091 14.7813C12.8576 14.7813 12.7273 14.7255 12.6182 14.614ZM11.6 5.40992C11.4909 5.29836 11.4364 5.1682 11.4364 5.01945C11.4364 4.87069 11.4909 4.74054 11.6 4.62897L12.6182 3.56911C12.7273 3.45755 12.8576 3.40486 13.0091 3.41106C13.1606 3.41726 13.2909 3.46994 13.4 3.56911C13.5091 3.68067 13.5636 3.81393 13.5636 3.96888C13.5636 4.12383 13.5091 4.25709 13.4 4.36866L12.3636 5.40992C12.2667 5.50909 12.1424 5.55867 11.9909 5.55867C11.8394 5.55867 11.7091 5.50909 11.6 5.40992ZM2.6 14.614C2.4909 14.5024 2.43636 14.3692 2.43636 14.2142C2.43636 14.0593 2.4909 13.926 2.6 13.8144L3.63636 12.7732C3.74545 12.6616 3.87272 12.6058 4.01818 12.6058C4.16363 12.6058 4.29091 12.6616 4.4 12.7732C4.50909 12.8847 4.56363 13.0149 4.56363 13.1636C4.56363 13.3124 4.50909 13.4426 4.4 13.5541L3.38181 14.614C3.27272 14.7255 3.14242 14.7782 2.9909 14.772C2.83939 14.7658 2.70909 14.7131 2.6 14.614Z" fill="currentColor"/>
</svg>
