<svg  viewBox="-4.5 0 51 51" fill="none" xmlns="http://www.w3.org/2000/svg">
<path d="M4.34375 51C3.31875 51 2.42187 50.6175 1.65312 49.8525C0.884375 49.0875 0.5 48.195 0.5 47.175V3.825C0.5 2.805 0.884375 1.9125 1.65312 1.1475C2.42187 0.3825 3.31875 0 4.34375 0H27.4703L41.5 13.9612V47.175C41.5 48.195 41.1156 49.0875 40.3469 49.8525C39.5781 50.6175 38.6812 51 37.6562 51H4.34375ZM25.5484 15.6825H37.6562L25.5484 3.825V15.6825ZM19.2063 43.2225H23.05V30.4088L28.3031 35.6362L30.9937 32.9588L21 23.2687L11.1344 33.0863L13.825 35.7637L19.2063 30.4088V43.2225Z" fill="currentColor"/>
</svg>
